# xmcd
#
# Track frame offsets:
#	150
#	12712
#	25687
#	49177
#	64042
#	75562
#	88787
#	114457
#	145590
#	162505
#	173512
#	193617
#
# Disc length: 2747
#
# Revision: 5
# Processed by: cddbd v1.5.1PL0 Copyright (c) Steve Scherf et al.
# Submitted via: Grip 2.93
# Normalized: r3:DSETVAR2,TSWAP
#
DISCID=950ab90c
DTITLE=Various Artist - Performing Hearts #9 Rhythm and Blues
DYEAR=1900
DGENRE=
TTITLE0=Louis Armstrong - Jelly Roll Blues
TTITLE1=Charles Brown - Big Legged Woman
TTITLE2=Pee Wee Crayton - Blues After Hours
TTITLE3=Billie Holiday - Lover Man
TTITLE4=Lightnin' Hopkins - Sometimes She Will
TTITLE5=Louis Jordan - I Got The Walkin' Blues
TTITLE6=BB King - The Thrill Is Gone
TTITLE7=BB King - Payin' The Cost To Be The Boss
TTITLE8=Gatemouth Moore - Goin' Down Slow
TTITLE9=Jimmy Reed - Baby What You Want Me To Do
TTITLE10=Joe Turner - Nuthin' From Nuthin' Blues
TTITLE11=Amos Milburne - See See Rider (AKA CC Rider)
EXTD=
EXTT0=
EXTT1=
EXTT2=
EXTT3=
EXTT4=
EXTT5=
EXTT6=
EXTT7=
EXTT8=
EXTT9=
EXTT10=
EXTT11=
PLAYORDER=
